<?xml version="1.0" encoding="UTF-8" standalone="no"?>
<!-- Created with Inkscape (http://www.inkscape.org/) -->

<svg
   width="44.857384mm"
   height="44.857388mm"
   viewBox="0 0 44.857383 44.857387"
   version="1.1"
   id="svg5"
   inkscape:version="1.2.2 (b0a8486541, 2022-12-01)"
   sodipodi:docname="search.svg"
   xmlns:inkscape="http://www.inkscape.org/namespaces/inkscape"
   xmlns:sodipodi="http://sodipodi.sourceforge.net/DTD/sodipodi-0.dtd"
   xmlns="http://www.w3.org/2000/svg"
   xmlns:svg="http://www.w3.org/2000/svg">
  <sodipodi:namedview
     id="namedview7"
     pagecolor="#505050"
     bordercolor="#ffffff"
     borderopacity="1"
     inkscape:showpageshadow="0"
     inkscape:pageopacity="0"
     inkscape:pagecheckerboard="1"
     inkscape:deskcolor="#505050"
     inkscape:document-units="mm"
     showgrid="false"
     inkscape:zoom="2.4722038"
     inkscape:cx="65.730826"
     inkscape:cy="196.58573"
     inkscape:window-width="1920"
     inkscape:window-height="1011"
     inkscape:window-x="0"
     inkscape:window-y="0"
     inkscape:window-maximized="1"
     inkscape:current-layer="layer1" />
  <defs
     id="defs2" />
  <g
     inkscape:label="Layer 1"
     inkscape:groupmode="layer"
     id="layer1"
     transform="translate(-73.185625,-39.509903)">
    <path
       id="path234"
       style="fill:#ffffff;stroke:#ffffff;stroke-width:1.37792;stroke-linecap:round;stroke-linejoin:round;stroke-dasharray:none"
       d="m 80.249583,46.573517 a 17.227479,17.227479 0 0 0 -3.44e-4,24.363637 17.227479,17.227479 0 0 0 23.433961,0.862656 l 10.54535,10.545351 1.79233,-1.792328 -10.54535,-10.545353 a 17.227479,17.227479 0 0 0 -0.86265,-23.43396 17.227479,17.227479 0 0 0 -24.363297,-3e-6 z m 1.737683,1.737682 a 14.77008,14.77008 0 0 1 20.887934,2e-6 14.77008,14.77008 0 0 1 0,20.887927 14.77008,14.77008 0 0 1 -20.888278,3.43e-4 14.77008,14.77008 0 0 1 3.44e-4,-20.888272 z" />
  </g>
</svg>
